<svg width="241" height="241" viewBox="0 0 241 241" fill="none" xmlns="http://www.w3.org/2000/svg">
<path d="M131.625 14.8125V42.625C131.625 68.8466 131.625 81.963 139.769 90.1065C147.912 98.25 161.028 98.25 187.25 98.25H231.75" stroke="#B7BBB9" stroke-width="15"/>
<path d="M176.125 165C182.269 165 187.25 157.529 187.25 148.312C187.25 139.096 182.269 131.625 176.125 131.625C169.981 131.625 165 139.096 165 148.312C165 157.529 169.981 165 176.125 165Z" fill="#B7BBB9"/>
<path d="M87.125 181.688C97.0095 188.274 108.622 191.789 120.5 191.789C132.378 191.789 143.991 188.274 153.875 181.688" stroke="#B7BBB9" stroke-width="15" stroke-linecap="round" stroke-linejoin="round"/>
<path d="M64.875 165C71.0192 165 76 157.529 76 148.312C76 139.096 71.0192 131.625 64.875 131.625C58.7308 131.625 53.75 139.096 53.75 148.312C53.75 157.529 58.7308 165 64.875 165Z" fill="#B7BBB9"/>
<path d="M17.5938 98.25C17.5938 96.0371 16.7147 93.9148 15.1499 92.3501C13.5852 90.7853 11.4629 89.9063 9.25001 89.9063C7.03711 89.9063 4.91485 90.7853 3.35009 92.3501C1.78534 93.9148 0.906264 96.0371 0.906264 98.25H17.5938ZM223.406 142.75C223.406 144.963 224.285 147.085 225.85 148.65C227.415 150.215 229.537 151.094 231.75 151.094C233.963 151.094 236.085 150.215 237.65 148.65C239.215 147.085 240.094 144.963 240.094 142.75H223.406ZM2.07439 52.9379C1.859 55.1405 2.5274 57.3384 3.93255 59.0481C5.3377 60.7579 7.3645 61.8394 9.56708 62.0548C11.7697 62.2702 13.9676 61.6018 15.6773 60.1967C17.3871 58.7915 18.4686 56.7647 18.684 54.5621L2.07439 52.9379ZM238.926 188.062C239.032 186.972 238.923 185.871 238.604 184.822C238.285 183.774 237.763 182.798 237.067 181.952C236.372 181.105 235.516 180.404 234.549 179.888C233.582 179.372 232.524 179.052 231.433 178.945C230.342 178.839 229.241 178.948 228.193 179.267C227.145 179.585 226.169 180.108 225.323 180.803C223.613 182.209 222.531 184.235 222.316 186.438L238.926 188.062ZM142.75 223.406H98.25V240.094H142.75V223.406ZM17.5938 142.75V98.25H0.906264V142.75H17.5938ZM223.406 137.888V142.75H240.094V137.888H223.406ZM152.662 38.2974L196.706 77.9358L207.865 65.5203L163.832 25.8819L152.662 38.2974ZM240.094 137.888C240.094 119.098 240.261 107.194 235.533 96.559L220.28 103.356C223.239 110.009 223.406 117.63 223.406 137.888H240.094ZM196.706 77.9358C211.758 91.486 217.321 96.7148 220.28 103.356L235.533 96.559C230.793 85.9124 221.838 78.0915 207.865 65.5203L196.706 77.9358ZM98.5838 17.5938C116.184 17.5938 122.825 17.7273 128.733 19.9968L134.718 4.42176C125.239 0.77276 114.915 0.90626 98.5838 0.90626V17.5938ZM163.832 25.893C151.75 15.0239 144.196 8.04851 134.718 4.42176L128.744 19.9968C134.662 22.2663 139.646 26.5828 152.662 38.2974L163.832 25.893ZM98.25 223.406C77.0346 223.406 61.9714 223.384 50.5238 221.849C39.3431 220.347 32.8906 217.521 28.1848 212.815L16.3923 224.608C24.7138 232.952 35.2714 236.634 48.3099 238.392C61.1036 240.116 77.513 240.094 98.25 240.094V223.406ZM0.906264 142.75C0.906264 163.487 0.884014 179.885 2.60839 192.69C4.36614 205.729 8.05964 216.286 16.3811 224.619L28.1736 212.826C23.4789 208.109 20.6531 201.657 19.1513 190.465C17.616 179.04 17.5938 163.965 17.5938 142.75H0.906264ZM142.75 240.094C163.487 240.094 179.885 240.116 192.69 238.392C205.729 236.634 216.286 232.94 224.619 224.619L212.826 212.826C208.109 217.521 201.657 220.347 190.465 221.849C179.04 223.384 163.965 223.406 142.75 223.406V240.094ZM98.5838 0.90626C77.7244 0.90626 61.2483 0.88401 48.3989 2.60839C35.3048 4.36614 24.7138 8.05964 16.3811 16.3811L28.1736 28.1736C32.8906 23.4789 39.3543 20.6531 50.6128 19.1513C62.1049 17.616 77.2571 17.5938 98.5838 17.5938V0.90626ZM18.684 54.5621C20.0301 40.8339 22.9338 33.4246 28.1848 28.1848L16.3923 16.3923C7.09176 25.6705 3.56514 37.7411 2.07439 52.9379L18.684 54.5621ZM222.316 186.438C220.97 200.166 218.055 207.575 212.815 212.815L224.608 224.608C233.908 215.329 237.435 203.259 238.926 188.062L222.316 186.438Z" fill="#B7BBB9"/>
</svg>
